<svg width="512" height="512" viewBox="0 0 512 512" fill="none" xmlns="http://www.w3.org/2000/svg">
  <!-- Striped S Logo based on the Sangram brand -->
  <g stroke="#2E3360" stroke-width="6" stroke-linecap="round" fill="none">
    <!-- Top curve stripes -->
    <path d="M320 80 C 380 80, 420 120, 420 170 C 420 220, 380 260, 320 280" />
    <path d="M300 92 C 355 92, 390 128, 390 172 C 390 216, 355 252, 300 270" />
    <path d="M280 104 C 330 104, 360 136, 360 174 C 360 212, 330 244, 280 260" />
    <path d="M260 116 C 305 116, 330 144, 330 176 C 330 208, 305 236, 260 250" />
    <path d="M240 128 C 280 128, 300 152, 300 178 C 300 204, 280 228, 240 240" />
    <path d="M220 140 C 255 140, 270 160, 270 180 C 270 200, 255 220, 220 230" />
    
    <!-- Middle diagonal stripes -->
    <path d="M320 280 L 192 350" />
    <path d="M300 270 L 180 336" />
    <path d="M280 260 L 168 322" />
    <path d="M260 250 L 156 308" />
    <path d="M240 240 L 144 294" />
    <path d="M220 230 L 132 280" />
    
    <!-- Bottom curve stripes -->
    <path d="M192 350 C 132 370, 92 410, 92 460 C 92 430, 132 400, 192 380" />
    <path d="M180 336 C 125 354, 104 390, 104 435" />
    <path d="M168 322 C 118 338, 116 370, 116 410" />
    <path d="M156 308 C 111 322, 128 350, 128 385" />
    <path d="M144 294 C 104 306, 140 330, 140 360" />
    <path d="M132 280 C 97 290, 152 310, 152 335" />
  </g>
  
  <!-- Golden accent dot -->
  <circle cx="256" cy="290" r="8" fill="#D4A853"/>
</svg>
