<svg xmlns="http://www.w3.org/2000/svg" viewBox="0 0 48 48" fill="none">
  <defs>
    <linearGradient id="grad1" x1="0%" y1="0%" x2="100%" y2="100%">
      <stop offset="0%" style="stop-color:#8B5CF6;stop-opacity:1" />
      <stop offset="50%" style="stop-color:#7C3AED;stop-opacity:1" />
      <stop offset="100%" style="stop-color:#6366F1;stop-opacity:1" />
    </linearGradient>
    <filter id="shadow" x="-20%" y="-20%" width="140%" height="140%">
      <feDropShadow dx="0" dy="2" stdDeviation="2" flood-color="#000" flood-opacity="0.2"/>
    </filter>
  </defs>
  <rect width="48" height="48" rx="12" fill="url(#grad1)" filter="url(#shadow)"/>
  <!-- Stylized S for Sangram -->
  <path d="M32 16c0 0-3-2-8-2s-8 2.5-8 5.5c0 4 6 4.5 10 5.5 4 1 6 2 6 4.5 0 3-3 4.5-8 4.5s-8-2-8-2" 
        stroke="white" stroke-width="3" stroke-linecap="round" fill="none" opacity="0.95"/>
  <!-- Knowledge light/star -->
  <circle cx="36" cy="12" r="2.5" fill="#FCD34D"/>
  <path d="M36 6 L36 8 M36 16 L36 18 M30 12 L32 12 M40 12 L42 12 M32 8 L33.5 9.5 M38.5 14.5 L40 16 M32 16 L33.5 14.5 M38.5 9.5 L40 8" 
        stroke="#FCD34D" stroke-width="1" stroke-linecap="round"/>
</svg>
